<?xml version="1.0" standalone="no"?>
<!DOCTYPE svg PUBLIC "-//W3C//DTD SVG 20010904//EN"
 "http://www.w3.org/TR/2001/REC-SVG-20010904/DTD/svg10.dtd">
<svg version="1.0" xmlns="http://www.w3.org/2000/svg"
 width="640.000000pt" height="640.000000pt" viewBox="0 0 640.000000 640.000000"
 preserveAspectRatio="xMidYMid meet">
<metadata>
Created by potrace 1.14, written by Peter Selinger 2001-2017
</metadata>
<g transform="translate(0.000000,640.000000) scale(0.100000,-0.100000)"
fill="#000000" stroke="none">
<path d="M3027 5394 c-1 -1 -195 -4 -432 -8 -236 -3 -468 -8 -515 -10 -47 -3
-152 -7 -235 -11 -82 -3 -177 -8 -210 -10 -33 -2 -103 -7 -155 -10 -52 -3
-117 -8 -145 -10 -85 -8 -169 -16 -200 -20 -16 -2 -55 -6 -85 -10 -82 -9 -122
-14 -150 -19 -14 -3 -45 -8 -70 -11 -169 -22 -322 -98 -448 -223 -140 -139
-215 -316 -247 -582 -4 -30 -8 -57 -10 -60 -1 -3 -6 -32 -9 -65 -4 -33 -9 -78
-12 -100 -8 -66 -21 -210 -30 -330 -26 -363 -26 -1200 1 -1475 2 -19 6 -69 10
-110 6 -75 12 -134 20 -200 3 -19 7 -55 10 -80 11 -88 46 -286 61 -345 67
-257 266 -478 502 -557 61 -20 237 -52 342 -63 36 -3 76 -8 90 -10 14 -2 61
-7 105 -10 44 -3 100 -8 125 -10 25 -2 95 -7 155 -11 61 -3 136 -7 167 -9 684
-40 2029 -50 2737 -20 47 2 148 6 225 9 78 4 175 8 216 11 178 13 255 19 385
31 61 5 122 13 235 29 14 2 45 7 70 10 270 37 510 208 619 440 29 62 51 122
57 155 2 14 9 45 14 70 5 25 12 61 15 80 3 19 10 60 15 90 6 30 12 78 15 105
4 28 8 62 10 76 3 14 7 52 10 85 3 32 8 75 10 94 4 31 8 86 20 245 25 330 25
1117 0 1335 -2 19 -6 73 -10 120 -17 238 -67 560 -111 718 -60 214 -223 403
-425 495 -79 37 -203 72 -284 82 -27 3 -61 7 -75 10 -56 9 -301 30 -480 40
-237 14 -372 20 -645 30 -159 6 -1254 22 -1258 19z"/>
</g>
</svg>
